<svg width="340" height="340" viewBox="0 0 340 340" fill="none" xmlns="http://www.w3.org/2000/svg">
<path d="M340 170C340 263.888 264.112 340 170.5 340C76.8877 340 1 263.888 1 170C1 76.1116 76.8877 0 170.5 0C264.112 0 340 76.1116 340 170Z" fill="#666666"/>
<path d="M170 0C76.11 0 0 76.11 0 170C0 263.89 76.11 340 170 340C263.89 340 340 263.89 340 170C340 76.11 263.89 0 170 0ZM170 10C258.37 10 330 81.63 330 170C330 243.159 280.85 304.721 213.809 323.789C212.446 321.727 211.453 319.324 211.523 316.504C211.793 305.934 211.523 281.296 211.523 272.246C211.523 256.716 201.699 245.703 201.699 245.703C201.699 245.703 278.789 246.576 278.789 164.316C278.789 132.576 262.227 116.055 262.227 116.055C262.227 116.055 270.929 82.163 259.199 67.793C246.049 66.373 222.491 80.3645 212.441 86.8945C212.441 86.8945 196.53 80.3711 170.02 80.3711C143.51 80.3711 127.578 86.8945 127.578 86.8945C117.518 80.3645 93.9703 66.373 80.8203 67.793C69.0903 82.163 77.793 116.055 77.793 116.055C77.793 116.055 61.2109 132.557 61.2109 164.297C61.2109 246.557 138.301 245.684 138.301 245.684C138.301 245.684 130.538 254.432 128.828 267.305C123.51 269.19 116.155 271.465 109.141 271.465C92.4106 271.465 79.6991 255.196 75.0391 247.676C70.4391 240.256 61.0166 234.023 52.2266 234.023C46.4366 234.023 43.5938 236.924 43.5938 240.234C43.5938 243.544 51.7103 245.843 57.0703 251.973C68.3703 264.903 68.1684 294.004 108.398 294.004C113.14 294.004 121.655 292.927 128.477 291.992C128.433 301.434 128.327 310.64 128.477 316.484C128.547 319.308 127.557 321.725 126.191 323.789C59.1495 304.721 10 243.159 10 170C10 81.63 81.63 10 170 10Z" fill="black"/>
</svg>
