<svg width="340" height="340" viewBox="0 0 340 340" fill="none" xmlns="http://www.w3.org/2000/svg">
<path d="M339 170C339 263.888 263.112 340 169.5 340C75.8877 340 0 263.888 0 170C0 76.1116 75.8877 0 169.5 0C263.112 0 339 76.1116 339 170Z" fill="#666666"/>
<path d="M100.129 70C87.9089 70 78 79.8798 78 92.0898C78 104.3 87.8989 114.219 100.129 114.219C112.319 114.219 122.219 104.3 122.219 92.0898C122.219 79.8998 112.319 70 100.129 70ZM215.852 128.633C197.402 128.633 185.043 138.769 179.973 148.359H179.465V131.68H143.078V253.711H180.988V193.34C180.988 177.43 184.002 161.992 203.742 161.992C223.192 161.992 223.469 180.195 223.469 194.355V253.711H261.359V186.777C261.359 153.917 254.252 128.633 215.852 128.633ZM81.1445 131.68V253.711H119.074V131.68H81.1445Z" fill="black"/>
<circle cx="170" cy="170" r="165" stroke="black" stroke-width="10"/>
</svg>
