<svg width="340" height="340" viewBox="0 0 340 340" fill="none" xmlns="http://www.w3.org/2000/svg">
<path d="M340 170C340 263.888 264.112 340 170.5 340C76.8877 340 1 263.888 1 170C1 76.1116 76.8877 0 170.5 0C264.112 0 340 76.1116 340 170Z" fill="white"/>
<path d="M170 0C76.11 0 0 76.11 0 170C0 263.89 76.11 340 170 340C263.89 340 340 263.89 340 170C340 76.11 263.89 0 170 0ZM170 10C258.37 10 330 81.63 330 170C330 258.37 258.37 330 170 330C81.63 330 10 258.37 10 170C10 81.63 81.63 10 170 10ZM217.969 94.0625C193.619 94.0625 173.887 114.042 173.887 138.672C173.887 142.162 175.039 148.828 175.039 148.828C175.039 148.828 121.84 149.157 84.1797 102.227C84.1797 102.227 78.3631 110.078 78.2031 124.668C77.9231 149.408 97.8125 161.777 97.8125 161.777C97.8125 161.777 87.802 162.041 77.832 156.191C78.722 194.501 113.203 200.488 113.203 200.488C113.203 200.488 102.051 202.67 93.2812 201.27C98.8912 218.99 115.183 231.896 134.473 232.246C119.393 244.216 100.387 251.348 79.7266 251.348C76.1766 251.348 72.6592 251.123 69.1992 250.703C79.4292 261.923 111.877 270.742 136.777 270.742C217.857 270.742 262.188 202.788 262.188 143.848C262.188 141.918 262.141 139.976 262.051 138.066C270.691 131.776 278.162 123.93 284.082 114.98C272.062 120.51 258.77 122.012 258.77 122.012C258.77 122.012 274.305 112.904 278.145 97.3242C269.635 102.434 260.206 106.154 250.156 108.164C242.106 99.4841 230.649 94.0625 217.969 94.0625Z" fill="#666666"/>
</svg>
