<svg width="340" height="340" viewBox="0 0 340 340" fill="none" xmlns="http://www.w3.org/2000/svg">
<path d="M340 169.996C340 263.883 264.112 339.993 170.5 339.993C76.8877 339.993 1 263.883 1 169.996C1 76.11 76.8877 0 170.5 0C264.112 0 340 76.11 340 169.996Z" fill="#666666"/>
<path d="M170.001 339.996C169.018 340.008 168.032 339.988 167.046 339.971C166.753 339.985 166.445 339.977 166.168 339.99C165.583 339.99 165.001 339.961 164.424 339.905C107.95 338.075 58.362 308.572 28.7936 264.564C28.4615 264.198 28.1827 263.783 27.9712 263.33C10.2543 236.459 -0.0492453 204.284 0.000176986 169.756C0.0654144 124.348 17.81 81.6834 49.9641 49.6229C80.855 18.8216 121.5 1.34821 164.909 0.079074C165.488 0.0276759 166.15 0.0632592 166.656 0C166.955 0 167.253 0.0079074 167.55 0.0237222C168.449 0.00988425 169.343 0.0079074 170.242 0.00593055C215.651 0.0691897 258.317 17.8134 290.38 49.9669C322.443 82.1203 340.065 124.836 340 170.244C339.95 204.736 329.57 236.854 311.807 263.662C311.58 264.17 311.268 264.631 310.89 265.03C280.304 310.237 228.551 339.992 170.001 339.996ZM164.234 329.881C165.189 329.96 166.148 330.017 167.111 330.057C176.507 329.045 186.569 312.52 194.212 285.412C195.894 279.447 197.428 273.1 198.814 266.424L133.737 266.331C135.101 273.013 136.619 279.364 138.284 285.333C145.575 311.478 155.143 327.803 164.234 329.881ZM208.896 266.438C207.36 274.08 205.634 281.322 203.727 288.092C198.67 306.028 192.664 319.498 185.913 328.212C213.151 321.707 236.946 298.902 252.934 266.501L208.896 266.438ZM86.7916 266.262C100.853 294.968 121.051 316.181 144.369 325.251C138.493 316.543 133.241 304.051 128.761 287.986C126.873 281.211 125.167 273.96 123.655 266.315L86.7916 266.262ZM263.702 266.517C252.902 289.751 238.326 308.802 221.315 321.679C251.955 311.285 278.463 291.85 297.641 266.564L263.702 266.517ZM42.0842 266.199C61.1909 291.538 87.6378 311.049 118.246 321.531C101.272 308.604 86.7541 289.514 76.0196 266.246L42.0842 266.199ZM267.966 256.639L304.564 256.69C319.849 233.047 329.076 205.138 330.032 175.171L283.921 175.105C283.307 204.812 277.562 232.626 267.966 256.639ZM210.737 256.556L257.439 256.623C267.389 232.972 273.4 205.059 274.037 175.092L217.607 175.011C217.326 204.181 214.95 232.098 210.737 256.556ZM131.869 256.445L200.708 256.544C205.01 232.258 207.437 204.301 207.72 174.997L125.09 174.878C125.29 204.183 127.638 232.145 131.869 256.445ZM82.316 256.374L121.842 256.429C117.698 231.956 115.403 204.037 115.207 174.864L65.9493 174.793C66.5008 204.762 72.4335 232.693 82.316 256.374ZM35.1908 256.305L71.787 256.356C62.2604 232.315 56.5946 204.487 56.0648 174.777L9.95383 174.714C10.8237 204.683 19.9707 232.618 35.1908 256.305ZM283.937 165.221L330.048 165.286C329.236 136.952 321.093 109.867 306.519 86.2203L269.336 86.1689C278.4 110.089 283.443 137.089 283.937 165.221ZM217.62 165.126L274.051 165.207C273.535 136.867 268.231 109.8 258.726 86.1531L211.403 86.0859C215.284 109.944 217.431 136.954 217.62 165.126ZM125.106 164.994L207.736 165.112C207.544 136.818 205.348 109.774 201.388 86.072L131.681 85.9712C127.652 109.662 125.379 136.699 125.106 164.994ZM65.9651 164.909L115.221 164.98C115.49 136.808 117.716 109.804 121.664 85.9554L81.5153 85.8981C71.9412 109.517 66.5601 136.571 65.9651 164.909ZM9.96569 164.83L56.0767 164.895C56.65 136.764 61.7721 109.778 70.9053 85.8823L33.722 85.8309C19.0811 109.434 10.8612 136.496 9.96569 164.83ZM265.279 76.2787L299.899 76.3262C294.956 69.506 289.443 63.0239 283.382 56.9451C265.845 39.3591 244.941 26.3475 222.116 18.5191C232.836 26.7053 242.713 37.5008 251.396 50.6805C256.617 58.6116 261.256 67.1852 265.279 76.2787ZM209.661 76.1977L254.408 76.2629C251.052 69.1581 247.288 62.421 243.138 56.1188C227.432 32.2681 207.69 16.9871 186.366 11.8334C193.091 20.5691 199.059 34.0552 204.065 52.005C206.16 59.521 208.03 67.6181 209.661 76.1977ZM133.502 76.089L199.595 76.1838C198.103 68.573 196.416 61.3753 194.544 54.6579C186.981 27.5395 176.968 10.9893 167.577 9.93762C166.613 9.97321 165.648 10.0286 164.687 10.1057C155.589 12.1636 145.98 28.4587 138.616 54.5788C136.724 61.2883 135.016 68.484 133.502 76.089ZM85.8605 76.0198L123.433 76.0731C125.09 67.4976 126.982 59.4063 129.099 51.8982C133.626 35.8403 138.914 23.3624 144.817 14.6722C127.037 21.5239 110.653 35.5912 97.1881 55.9093C93.0208 62.1996 89.2371 68.9268 85.8605 76.0198ZM40.3723 75.9565L74.9916 76.0039C79.0403 66.9223 83.7037 58.3645 88.9504 50.4492C97.6705 37.2913 107.577 26.5254 118.321 18.3689C95.4761 26.134 74.5329 39.0843 56.9465 56.6209C50.8656 62.6839 45.3323 69.1482 40.3723 75.9565Z" fill="black"/>
</svg>
