<svg width="340" height="340" viewBox="0 0 340 340" fill="none" xmlns="http://www.w3.org/2000/svg">
<mask id="path-1-inside-1_1417_8719" fill="white">
<path d="M340 170C340 263.888 264.112 340 170.5 340C76.8877 340 1 263.888 1 170C1 76.1116 76.8877 0 170.5 0C264.112 0 340 76.1116 340 170Z"/>
<path d="M136 114V225.719L233.168 169.41L136 114Z"/>
<path d="M340 170C340 263.888 263.888 340 170 340C76.1116 340 0 263.888 0 170C0 76.1116 76.1116 0 170 0C263.888 0 340 76.1116 340 170Z"/>
</mask>
<path d="M136 114L140.954 105.313L126 96.7858V114H136ZM136 225.719H126V243.071L141.014 234.371L136 225.719ZM233.168 169.41L238.182 178.062L253.233 169.34L238.122 160.723L233.168 169.41ZM330 170C330 258.393 258.562 330 170.5 330V350C269.663 350 350 269.383 350 170H330ZM170.5 330C82.4383 330 11 258.393 11 170H-9C-9 269.383 71.3371 350 170.5 350V330ZM11 170C11 81.6067 82.4383 10 170.5 10V-10C71.3371 -10 -9 70.6165 -9 170H11ZM170.5 10C258.562 10 330 81.6067 330 170H350C350 70.6165 269.663 -10 170.5 -10V10ZM126 114V225.719H146V114H126ZM141.014 234.371L238.182 178.062L228.154 160.758L130.986 217.067L141.014 234.371ZM238.122 160.723L140.954 105.313L131.046 122.687L228.214 178.097L238.122 160.723ZM330 170C330 258.366 258.366 330 170 330V350C269.411 350 350 269.411 350 170H330ZM170 330C81.6344 330 10 258.366 10 170H-10C-10 269.411 70.5887 350 170 350V330ZM10 170C10 81.6344 81.6344 10 170 10V-10C70.5887 -10 -10 70.5887 -10 170H10ZM170 10C258.366 10 330 81.6344 330 170H350C350 70.5887 269.411 -10 170 -10V10Z" fill="#666666" mask="url(#path-1-inside-1_1417_8719)"/>
</svg>
